<mxfile host="app.diagrams.net" modified="2023-05-19T00:13:32.641Z" agent="Mozilla/5.0 (Windows NT 10.0; Win64; x64) AppleWebKit/537.36 (KHTML, like Gecko) Chrome/113.0.0.0 Safari/537.36" etag="2eHHktZhBPe5QIbkRres" version="21.3.2" type="github">
  <diagram name="Page-1" id="929967ad-93f9-6ef4-fab6-5d389245f69c">
    <mxGraphModel dx="1956" dy="1058" grid="1" gridSize="10" guides="1" tooltips="1" connect="1" arrows="1" fold="1" page="1" pageScale="1.5" pageWidth="1169" pageHeight="826" background="none" math="0" shadow="0">
      <root>
        <mxCell id="0" style=";html=1;" />
        <mxCell id="1" style=";html=1;" parent="0" />
        <mxCell id="FM4MLQlX4S6_MjqL9CDb-174" value="Model" style="shape=folder;fontStyle=1;spacingTop=10;tabWidth=30;tabHeight=10;tabPosition=left;html=1;whiteSpace=wrap;horizontal=1;labelPosition=center;verticalLabelPosition=top;align=center;verticalAlign=bottom;" vertex="1" parent="1">
          <mxGeometry x="650" y="180" width="840" height="690" as="geometry" />
        </mxCell>
        <mxCell id="FM4MLQlX4S6_MjqL9CDb-80" value="Grupo" style="swimlane;fontStyle=2;align=center;verticalAlign=top;childLayout=stackLayout;horizontal=1;startSize=26;horizontalStack=0;resizeParent=1;resizeLast=0;collapsible=1;marginBottom=0;rounded=0;shadow=0;strokeWidth=1;" vertex="1" parent="1">
          <mxGeometry x="940" y="460" width="160" height="390" as="geometry">
            <mxRectangle x="230" y="140" width="160" height="26" as="alternateBounds" />
          </mxGeometry>
        </mxCell>
        <mxCell id="FM4MLQlX4S6_MjqL9CDb-81" value="- id: int" style="text;align=left;verticalAlign=top;spacingLeft=4;spacingRight=4;overflow=hidden;rotatable=0;points=[[0,0.5],[1,0.5]];portConstraint=eastwest;rounded=0;shadow=0;html=0;" vertex="1" parent="FM4MLQlX4S6_MjqL9CDb-80">
          <mxGeometry y="26" width="160" height="26" as="geometry" />
        </mxCell>
        <mxCell id="FM4MLQlX4S6_MjqL9CDb-82" value="- nome: String" style="text;align=left;verticalAlign=top;spacingLeft=4;spacingRight=4;overflow=hidden;rotatable=0;points=[[0,0.5],[1,0.5]];portConstraint=eastwest;rounded=0;shadow=0;html=0;" vertex="1" parent="FM4MLQlX4S6_MjqL9CDb-80">
          <mxGeometry y="52" width="160" height="26" as="geometry" />
        </mxCell>
        <mxCell id="FM4MLQlX4S6_MjqL9CDb-84" value="- membros: List&lt;Usuario&gt;" style="text;align=left;verticalAlign=top;spacingLeft=4;spacingRight=4;overflow=hidden;rotatable=0;points=[[0,0.5],[1,0.5]];portConstraint=eastwest;rounded=0;shadow=0;html=0;" vertex="1" parent="FM4MLQlX4S6_MjqL9CDb-80">
          <mxGeometry y="78" width="160" height="26" as="geometry" />
        </mxCell>
        <mxCell id="FM4MLQlX4S6_MjqL9CDb-85" value="- despesas: List&lt;Despesa&gt;" style="text;align=left;verticalAlign=top;spacingLeft=4;spacingRight=4;overflow=hidden;rotatable=0;points=[[0,0.5],[1,0.5]];portConstraint=eastwest;rounded=0;shadow=0;html=0;" vertex="1" parent="FM4MLQlX4S6_MjqL9CDb-80">
          <mxGeometry y="104" width="160" height="26" as="geometry" />
        </mxCell>
        <mxCell id="FM4MLQlX4S6_MjqL9CDb-86" value="" style="line;html=1;strokeWidth=1;align=left;verticalAlign=middle;spacingTop=-1;spacingLeft=3;spacingRight=3;rotatable=0;labelPosition=right;points=[];portConstraint=eastwest;" vertex="1" parent="FM4MLQlX4S6_MjqL9CDb-80">
          <mxGeometry y="130" width="160" height="46" as="geometry" />
        </mxCell>
        <mxCell id="FM4MLQlX4S6_MjqL9CDb-163" value="+getId: int&#xa;" style="text;align=left;verticalAlign=top;spacingLeft=4;spacingRight=4;overflow=hidden;rotatable=0;points=[[0,0.5],[1,0.5]];portConstraint=eastwest;rounded=0;shadow=0;html=0;" vertex="1" parent="FM4MLQlX4S6_MjqL9CDb-80">
          <mxGeometry y="176" width="160" height="27" as="geometry" />
        </mxCell>
        <mxCell id="FM4MLQlX4S6_MjqL9CDb-164" value="+setId: int" style="text;align=left;verticalAlign=top;spacingLeft=4;spacingRight=4;overflow=hidden;rotatable=0;points=[[0,0.5],[1,0.5]];portConstraint=eastwest;rounded=0;shadow=0;html=0;" vertex="1" parent="FM4MLQlX4S6_MjqL9CDb-80">
          <mxGeometry y="203" width="160" height="27" as="geometry" />
        </mxCell>
        <mxCell id="FM4MLQlX4S6_MjqL9CDb-89" value="+ getNome: String" style="text;align=left;verticalAlign=top;spacingLeft=4;spacingRight=4;overflow=hidden;rotatable=0;points=[[0,0.5],[1,0.5]];portConstraint=eastwest;rounded=0;shadow=0;html=0;" vertex="1" parent="FM4MLQlX4S6_MjqL9CDb-80">
          <mxGeometry y="230" width="160" height="26" as="geometry" />
        </mxCell>
        <mxCell id="FM4MLQlX4S6_MjqL9CDb-90" value="+ setNome: String" style="text;align=left;verticalAlign=top;spacingLeft=4;spacingRight=4;overflow=hidden;rotatable=0;points=[[0,0.5],[1,0.5]];portConstraint=eastwest;rounded=0;shadow=0;html=0;" vertex="1" parent="FM4MLQlX4S6_MjqL9CDb-80">
          <mxGeometry y="256" width="160" height="26" as="geometry" />
        </mxCell>
        <mxCell id="FM4MLQlX4S6_MjqL9CDb-95" value="+ adicionarMembro" style="text;align=left;verticalAlign=top;spacingLeft=4;spacingRight=4;overflow=hidden;rotatable=0;points=[[0,0.5],[1,0.5]];portConstraint=eastwest;" vertex="1" parent="FM4MLQlX4S6_MjqL9CDb-80">
          <mxGeometry y="282" width="160" height="26" as="geometry" />
        </mxCell>
        <mxCell id="FM4MLQlX4S6_MjqL9CDb-96" value="+ adicionarDespesa" style="text;align=left;verticalAlign=top;spacingLeft=4;spacingRight=4;overflow=hidden;rotatable=0;points=[[0,0.5],[1,0.5]];portConstraint=eastwest;" vertex="1" parent="FM4MLQlX4S6_MjqL9CDb-80">
          <mxGeometry y="308" width="160" height="26" as="geometry" />
        </mxCell>
        <mxCell id="FM4MLQlX4S6_MjqL9CDb-165" value="+ removerMembro" style="text;align=left;verticalAlign=top;spacingLeft=4;spacingRight=4;overflow=hidden;rotatable=0;points=[[0,0.5],[1,0.5]];portConstraint=eastwest;" vertex="1" parent="FM4MLQlX4S6_MjqL9CDb-80">
          <mxGeometry y="334" width="160" height="26" as="geometry" />
        </mxCell>
        <mxCell id="FM4MLQlX4S6_MjqL9CDb-166" value="+ removerDespesa" style="text;align=left;verticalAlign=top;spacingLeft=4;spacingRight=4;overflow=hidden;rotatable=0;points=[[0,0.5],[1,0.5]];portConstraint=eastwest;" vertex="1" parent="FM4MLQlX4S6_MjqL9CDb-80">
          <mxGeometry y="360" width="160" height="26" as="geometry" />
        </mxCell>
        <mxCell id="FM4MLQlX4S6_MjqL9CDb-169" style="edgeStyle=orthogonalEdgeStyle;rounded=0;orthogonalLoop=1;jettySize=auto;html=1;" edge="1" parent="1" source="FM4MLQlX4S6_MjqL9CDb-130">
          <mxGeometry relative="1" as="geometry">
            <mxPoint x="890" y="424.5" as="targetPoint" />
          </mxGeometry>
        </mxCell>
        <mxCell id="FM4MLQlX4S6_MjqL9CDb-130" value="Despesa" style="swimlane;fontStyle=2;align=center;verticalAlign=top;childLayout=stackLayout;horizontal=1;startSize=26;horizontalStack=0;resizeParent=1;resizeLast=0;collapsible=1;marginBottom=0;rounded=0;shadow=0;strokeWidth=1;" vertex="1" parent="1">
          <mxGeometry x="1130" y="230" width="290" height="389" as="geometry">
            <mxRectangle x="230" y="140" width="160" height="26" as="alternateBounds" />
          </mxGeometry>
        </mxCell>
        <mxCell id="FM4MLQlX4S6_MjqL9CDb-131" value="- id: int" style="text;align=left;verticalAlign=top;spacingLeft=4;spacingRight=4;overflow=hidden;rotatable=0;points=[[0,0.5],[1,0.5]];portConstraint=eastwest;rounded=0;shadow=0;html=0;" vertex="1" parent="FM4MLQlX4S6_MjqL9CDb-130">
          <mxGeometry y="26" width="290" height="26" as="geometry" />
        </mxCell>
        <mxCell id="FM4MLQlX4S6_MjqL9CDb-132" value="- descricao: String" style="text;align=left;verticalAlign=top;spacingLeft=4;spacingRight=4;overflow=hidden;rotatable=0;points=[[0,0.5],[1,0.5]];portConstraint=eastwest;rounded=0;shadow=0;html=0;" vertex="1" parent="FM4MLQlX4S6_MjqL9CDb-130">
          <mxGeometry y="52" width="290" height="26" as="geometry" />
        </mxCell>
        <mxCell id="FM4MLQlX4S6_MjqL9CDb-133" value="- valorTotal: float" style="text;align=left;verticalAlign=top;spacingLeft=4;spacingRight=4;overflow=hidden;rotatable=0;points=[[0,0.5],[1,0.5]];portConstraint=eastwest;rounded=0;shadow=0;html=0;" vertex="1" parent="FM4MLQlX4S6_MjqL9CDb-130">
          <mxGeometry y="78" width="290" height="26" as="geometry" />
        </mxCell>
        <mxCell id="FM4MLQlX4S6_MjqL9CDb-159" value="- donoConta: Usuario" style="text;align=left;verticalAlign=top;spacingLeft=4;spacingRight=4;overflow=hidden;rotatable=0;points=[[0,0.5],[1,0.5]];portConstraint=eastwest;rounded=0;shadow=0;html=0;" vertex="1" parent="FM4MLQlX4S6_MjqL9CDb-130">
          <mxGeometry y="104" width="290" height="26" as="geometry" />
        </mxCell>
        <mxCell id="FM4MLQlX4S6_MjqL9CDb-134" value="- divisao: Map&lt;Usuario, Float&gt;" style="text;align=left;verticalAlign=top;spacingLeft=4;spacingRight=4;overflow=hidden;rotatable=0;points=[[0,0.5],[1,0.5]];portConstraint=eastwest;rounded=0;shadow=0;html=0;" vertex="1" parent="FM4MLQlX4S6_MjqL9CDb-130">
          <mxGeometry y="130" width="290" height="26" as="geometry" />
        </mxCell>
        <mxCell id="FM4MLQlX4S6_MjqL9CDb-135" value="" style="line;html=1;strokeWidth=1;align=left;verticalAlign=middle;spacingTop=-1;spacingLeft=3;spacingRight=3;rotatable=0;labelPosition=right;points=[];portConstraint=eastwest;" vertex="1" parent="FM4MLQlX4S6_MjqL9CDb-130">
          <mxGeometry y="156" width="290" height="46" as="geometry" />
        </mxCell>
        <mxCell id="FM4MLQlX4S6_MjqL9CDb-136" value="+getId: int&#xa;" style="text;align=left;verticalAlign=top;spacingLeft=4;spacingRight=4;overflow=hidden;rotatable=0;points=[[0,0.5],[1,0.5]];portConstraint=eastwest;rounded=0;shadow=0;html=0;" vertex="1" parent="FM4MLQlX4S6_MjqL9CDb-130">
          <mxGeometry y="202" width="290" height="27" as="geometry" />
        </mxCell>
        <mxCell id="FM4MLQlX4S6_MjqL9CDb-137" value="+setId: int" style="text;align=left;verticalAlign=top;spacingLeft=4;spacingRight=4;overflow=hidden;rotatable=0;points=[[0,0.5],[1,0.5]];portConstraint=eastwest;rounded=0;shadow=0;html=0;" vertex="1" parent="FM4MLQlX4S6_MjqL9CDb-130">
          <mxGeometry y="229" width="290" height="27" as="geometry" />
        </mxCell>
        <mxCell id="FM4MLQlX4S6_MjqL9CDb-138" value="+getDescricao: String&#xa;" style="text;align=left;verticalAlign=top;spacingLeft=4;spacingRight=4;overflow=hidden;rotatable=0;points=[[0,0.5],[1,0.5]];portConstraint=eastwest;rounded=0;shadow=0;html=0;" vertex="1" parent="FM4MLQlX4S6_MjqL9CDb-130">
          <mxGeometry y="256" width="290" height="27" as="geometry" />
        </mxCell>
        <mxCell id="FM4MLQlX4S6_MjqL9CDb-139" value="+setDescricao: String&#xa;" style="text;align=left;verticalAlign=top;spacingLeft=4;spacingRight=4;overflow=hidden;rotatable=0;points=[[0,0.5],[1,0.5]];portConstraint=eastwest;rounded=0;shadow=0;html=0;" vertex="1" parent="FM4MLQlX4S6_MjqL9CDb-130">
          <mxGeometry y="283" width="290" height="27" as="geometry" />
        </mxCell>
        <mxCell id="FM4MLQlX4S6_MjqL9CDb-160" value="+ getValorTotal: float" style="text;align=left;verticalAlign=top;spacingLeft=4;spacingRight=4;overflow=hidden;rotatable=0;points=[[0,0.5],[1,0.5]];portConstraint=eastwest;rounded=0;shadow=0;html=0;" vertex="1" parent="FM4MLQlX4S6_MjqL9CDb-130">
          <mxGeometry y="310" width="290" height="26" as="geometry" />
        </mxCell>
        <mxCell id="FM4MLQlX4S6_MjqL9CDb-141" value="+ setValorTotal: float" style="text;align=left;verticalAlign=top;spacingLeft=4;spacingRight=4;overflow=hidden;rotatable=0;points=[[0,0.5],[1,0.5]];portConstraint=eastwest;rounded=0;shadow=0;html=0;" vertex="1" parent="FM4MLQlX4S6_MjqL9CDb-130">
          <mxGeometry y="336" width="290" height="27" as="geometry" />
        </mxCell>
        <mxCell id="FM4MLQlX4S6_MjqL9CDb-161" value="+ getDonoConta: float" style="text;align=left;verticalAlign=top;spacingLeft=4;spacingRight=4;overflow=hidden;rotatable=0;points=[[0,0.5],[1,0.5]];portConstraint=eastwest;rounded=0;shadow=0;html=0;" vertex="1" parent="FM4MLQlX4S6_MjqL9CDb-130">
          <mxGeometry y="363" width="290" height="26" as="geometry" />
        </mxCell>
        <mxCell id="FM4MLQlX4S6_MjqL9CDb-143" value="Usuario" style="swimlane;fontStyle=2;align=center;verticalAlign=top;childLayout=stackLayout;horizontal=1;startSize=26;horizontalStack=0;resizeParent=1;resizeLast=0;collapsible=1;marginBottom=0;rounded=0;shadow=0;strokeWidth=1;" vertex="1" parent="1">
          <mxGeometry x="710" y="310" width="180" height="310" as="geometry">
            <mxRectangle x="230" y="140" width="160" height="26" as="alternateBounds" />
          </mxGeometry>
        </mxCell>
        <mxCell id="FM4MLQlX4S6_MjqL9CDb-168" value="- nome: String" style="text;align=left;verticalAlign=top;spacingLeft=4;spacingRight=4;overflow=hidden;rotatable=0;points=[[0,0.5],[1,0.5]];portConstraint=eastwest;rounded=0;shadow=0;html=0;" vertex="1" parent="FM4MLQlX4S6_MjqL9CDb-143">
          <mxGeometry y="26" width="180" height="26" as="geometry" />
        </mxCell>
        <mxCell id="FM4MLQlX4S6_MjqL9CDb-144" value="- usuario: String" style="text;align=left;verticalAlign=top;spacingLeft=4;spacingRight=4;overflow=hidden;rotatable=0;points=[[0,0.5],[1,0.5]];portConstraint=eastwest;rounded=0;shadow=0;html=0;" vertex="1" parent="FM4MLQlX4S6_MjqL9CDb-143">
          <mxGeometry y="52" width="180" height="26" as="geometry" />
        </mxCell>
        <mxCell id="FM4MLQlX4S6_MjqL9CDb-146" value="- senha: String" style="text;align=left;verticalAlign=top;spacingLeft=4;spacingRight=4;overflow=hidden;rotatable=0;points=[[0,0.5],[1,0.5]];portConstraint=eastwest;rounded=0;shadow=0;html=0;" vertex="1" parent="FM4MLQlX4S6_MjqL9CDb-143">
          <mxGeometry y="78" width="180" height="26" as="geometry" />
        </mxCell>
        <mxCell id="FM4MLQlX4S6_MjqL9CDb-148" value="" style="line;html=1;strokeWidth=1;align=left;verticalAlign=middle;spacingTop=-1;spacingLeft=3;spacingRight=3;rotatable=0;labelPosition=right;points=[];portConstraint=eastwest;" vertex="1" parent="FM4MLQlX4S6_MjqL9CDb-143">
          <mxGeometry y="104" width="180" height="46" as="geometry" />
        </mxCell>
        <mxCell id="FM4MLQlX4S6_MjqL9CDb-170" value="+ getNome: String" style="text;align=left;verticalAlign=top;spacingLeft=4;spacingRight=4;overflow=hidden;rotatable=0;points=[[0,0.5],[1,0.5]];portConstraint=eastwest;rounded=0;shadow=0;html=0;" vertex="1" parent="FM4MLQlX4S6_MjqL9CDb-143">
          <mxGeometry y="150" width="180" height="26" as="geometry" />
        </mxCell>
        <mxCell id="FM4MLQlX4S6_MjqL9CDb-171" value="+ setNome: String" style="text;align=left;verticalAlign=top;spacingLeft=4;spacingRight=4;overflow=hidden;rotatable=0;points=[[0,0.5],[1,0.5]];portConstraint=eastwest;rounded=0;shadow=0;html=0;" vertex="1" parent="FM4MLQlX4S6_MjqL9CDb-143">
          <mxGeometry y="176" width="180" height="26" as="geometry" />
        </mxCell>
        <mxCell id="FM4MLQlX4S6_MjqL9CDb-153" value="+ getUsuario: String" style="text;align=left;verticalAlign=top;spacingLeft=4;spacingRight=4;overflow=hidden;rotatable=0;points=[[0,0.5],[1,0.5]];portConstraint=eastwest;rounded=0;shadow=0;html=0;" vertex="1" parent="FM4MLQlX4S6_MjqL9CDb-143">
          <mxGeometry y="202" width="180" height="26" as="geometry" />
        </mxCell>
        <mxCell id="FM4MLQlX4S6_MjqL9CDb-154" value="+ setUsuario: String" style="text;align=left;verticalAlign=top;spacingLeft=4;spacingRight=4;overflow=hidden;rotatable=0;points=[[0,0.5],[1,0.5]];portConstraint=eastwest;rounded=0;shadow=0;html=0;" vertex="1" parent="FM4MLQlX4S6_MjqL9CDb-143">
          <mxGeometry y="228" width="180" height="26" as="geometry" />
        </mxCell>
        <mxCell id="FM4MLQlX4S6_MjqL9CDb-151" value="+ getSenha: String" style="text;align=left;verticalAlign=top;spacingLeft=4;spacingRight=4;overflow=hidden;rotatable=0;points=[[0,0.5],[1,0.5]];portConstraint=eastwest;rounded=0;shadow=0;html=0;" vertex="1" parent="FM4MLQlX4S6_MjqL9CDb-143">
          <mxGeometry y="254" width="180" height="26" as="geometry" />
        </mxCell>
        <mxCell id="FM4MLQlX4S6_MjqL9CDb-152" value="+ setSenha: String" style="text;align=left;verticalAlign=top;spacingLeft=4;spacingRight=4;overflow=hidden;rotatable=0;points=[[0,0.5],[1,0.5]];portConstraint=eastwest;rounded=0;shadow=0;html=0;" vertex="1" parent="FM4MLQlX4S6_MjqL9CDb-143">
          <mxGeometry y="280" width="180" height="26" as="geometry" />
        </mxCell>
        <mxCell id="FM4MLQlX4S6_MjqL9CDb-156" style="edgeStyle=orthogonalEdgeStyle;rounded=0;orthogonalLoop=1;jettySize=auto;html=1;entryX=0.5;entryY=0;entryDx=0;entryDy=0;" edge="1" parent="1" source="FM4MLQlX4S6_MjqL9CDb-136" target="FM4MLQlX4S6_MjqL9CDb-80">
          <mxGeometry relative="1" as="geometry">
            <Array as="points">
              <mxPoint x="1020" y="440" />
            </Array>
          </mxGeometry>
        </mxCell>
        <mxCell id="FM4MLQlX4S6_MjqL9CDb-175" value="Controller" style="shape=folder;fontStyle=1;spacingTop=10;tabWidth=30;tabHeight=10;tabPosition=left;html=1;whiteSpace=wrap;horizontal=1;labelPosition=center;verticalLabelPosition=top;align=center;verticalAlign=bottom;" vertex="1" parent="1">
          <mxGeometry x="380" y="250" width="190" height="150" as="geometry" />
        </mxCell>
        <mxCell id="FM4MLQlX4S6_MjqL9CDb-176" value="View" style="shape=folder;fontStyle=1;spacingTop=10;tabWidth=30;tabHeight=10;tabPosition=left;html=1;whiteSpace=wrap;horizontal=1;labelPosition=center;verticalLabelPosition=top;align=center;verticalAlign=bottom;" vertex="1" parent="1">
          <mxGeometry x="290" y="490" width="150" height="100" as="geometry" />
        </mxCell>
        <mxCell id="FM4MLQlX4S6_MjqL9CDb-177" value="" style="endArrow=block;startArrow=block;endFill=1;startFill=1;html=1;rounded=0;entryX=0.25;entryY=1;entryDx=0;entryDy=0;entryPerimeter=0;exitX=0.775;exitY=0.098;exitDx=0;exitDy=0;exitPerimeter=0;" edge="1" parent="1" source="FM4MLQlX4S6_MjqL9CDb-176" target="FM4MLQlX4S6_MjqL9CDb-175">
          <mxGeometry width="160" relative="1" as="geometry">
            <mxPoint x="340" y="440" as="sourcePoint" />
            <mxPoint x="500" y="440" as="targetPoint" />
          </mxGeometry>
        </mxCell>
        <mxCell id="FM4MLQlX4S6_MjqL9CDb-179" value="" style="endArrow=block;startArrow=block;endFill=1;startFill=1;html=1;rounded=0;entryX=-0.004;entryY=0.309;entryDx=0;entryDy=0;entryPerimeter=0;exitX=0;exitY=0;exitDx=190;exitDy=80;exitPerimeter=0;" edge="1" parent="1" source="FM4MLQlX4S6_MjqL9CDb-175" target="FM4MLQlX4S6_MjqL9CDb-174">
          <mxGeometry width="160" relative="1" as="geometry">
            <mxPoint x="608" y="380" as="sourcePoint" />
            <mxPoint x="650" y="280" as="targetPoint" />
          </mxGeometry>
        </mxCell>
      </root>
    </mxGraphModel>
  </diagram>
</mxfile>
